<svg width="90" height="90" viewBox="0 0 90 90" fill="none" xmlns="http://www.w3.org/2000/svg">
<path fill-rule="evenodd" clip-rule="evenodd" d="M39.3288 14.2038C43.021 10.5117 48.0285 8.4375 53.25 8.4375H63.375C64.9283 8.4375 66.1875 9.6967 66.1875 11.25V24.75C66.1875 26.3033 64.9283 27.5625 63.375 27.5625H53.25C53.1008 27.5625 52.9577 27.6218 52.8523 27.7273C52.7468 27.8327 52.6875 27.9758 52.6875 28.125V35.4375H63.375C64.2411 35.4375 65.0588 35.8365 65.5918 36.5192C66.1248 37.2018 66.3136 38.0919 66.1035 38.9321L62.7285 52.4321C62.4155 53.6842 61.2906 54.5625 60 54.5625H52.6875V78.75C52.6875 80.3033 51.4283 81.5625 49.875 81.5625H36.375C34.8217 81.5625 33.5625 80.3033 33.5625 78.75V54.5625H26.25C24.6967 54.5625 23.4375 53.3033 23.4375 51.75V38.25C23.4375 36.6967 24.6967 35.4375 26.25 35.4375H33.5625V28.125C33.5625 22.9036 35.6367 17.896 39.3288 14.2038ZM53.25 14.0625C49.5204 14.0625 45.9435 15.5441 43.3063 18.1813C40.6691 20.8185 39.1875 24.3954 39.1875 28.125V38.25C39.1875 39.8033 37.9283 41.0625 36.375 41.0625H29.0625V48.9375H36.375C37.9283 48.9375 39.1875 50.1967 39.1875 51.75V75.9375H47.0625V51.75C47.0625 50.1967 48.3217 48.9375 49.875 48.9375H57.8041L59.7728 41.0625H49.875C48.3217 41.0625 47.0625 39.8033 47.0625 38.25V28.125C47.0625 26.484 47.7144 24.9102 48.8748 23.7498C50.0352 22.5894 51.609 21.9375 53.25 21.9375H60.5625V14.0625H53.25Z" fill="#5F5B5B"/>
</svg>
