<svg width="134" height="142" viewBox="0 0 134 142" fill="none" xmlns="http://www.w3.org/2000/svg">
<path d="M79.2225 58.3157C78.9163 58.0058 78.5519 57.7598 78.1504 57.5919C77.7489 57.4241 77.3183 57.3377 76.8834 57.3377C76.4485 57.3377 76.0179 57.4241 75.6164 57.5919C75.215 57.7598 74.8506 58.0058 74.5443 58.3157L66.9999 65.9203L59.4554 58.3157C58.8351 57.6931 57.9937 57.3433 57.1163 57.3433C56.239 57.3433 55.3976 57.6931 54.7772 58.3157C54.1569 58.9383 53.8083 59.7827 53.8083 60.6632C53.8083 61.5437 54.1569 62.3881 54.7772 63.0107L62.3546 70.5823L54.7772 78.1539C54.4684 78.4613 54.2233 78.827 54.0561 79.2299C53.8888 79.6328 53.8027 80.065 53.8027 80.5014C53.8027 80.9379 53.8888 81.3701 54.0561 81.773C54.2233 82.1759 54.4684 82.5416 54.7772 82.849C55.0835 83.1589 55.4479 83.4048 55.8493 83.5727C56.2508 83.7406 56.6814 83.827 57.1163 83.827C57.5513 83.827 57.9819 83.7406 58.3833 83.5727C58.7848 83.4048 59.1492 83.1589 59.4554 82.849L66.9999 75.2443L74.5443 82.849C74.8506 83.1589 75.215 83.4048 75.6164 83.5727C76.0179 83.7406 76.4485 83.827 76.8834 83.827C77.3183 83.827 77.7489 83.7406 78.1504 83.5727C78.5519 83.4048 78.9163 83.1589 79.2225 82.849C79.5313 82.5416 79.7764 82.1759 79.9437 81.773C80.1109 81.3701 80.197 80.9379 80.197 80.5014C80.197 80.065 80.1109 79.6328 79.9437 79.2299C79.7764 78.827 79.5313 78.4613 79.2225 78.1539L71.6451 70.5823L79.2225 63.0107C79.5313 62.7034 79.7764 62.3377 79.9437 61.9348C80.1109 61.5319 80.197 61.0997 80.197 60.6632C80.197 60.2267 80.1109 59.7946 79.9437 59.3917C79.7764 58.9887 79.5313 58.6231 79.2225 58.3157ZM90.2921 47.2063C87.253 44.0483 83.6177 41.5295 79.5982 39.7966C75.5788 38.0638 71.2557 37.1517 66.8813 37.1136C62.5069 37.0754 58.1687 37.912 54.1198 39.5744C50.071 41.2369 46.3926 43.692 43.2993 46.7964C40.206 49.9009 37.7597 53.5925 36.1032 57.6559C34.4467 61.7193 33.6131 66.0732 33.6511 70.4633C33.6892 74.8535 34.598 79.1921 36.3246 83.226C38.0512 87.26 40.5611 90.9084 43.7077 93.9584C46.7467 97.1163 50.3821 99.6352 54.4015 101.368C58.4209 103.101 62.744 104.013 67.1184 104.051C71.4929 104.089 75.8311 103.253 79.8799 101.59C83.9287 99.9277 87.6071 97.4727 90.7005 94.3682C93.7938 91.2638 96.24 87.5721 97.8966 83.5087C99.5531 79.4453 100.387 75.0915 100.349 70.7013C100.311 66.3111 99.4018 61.9725 97.6751 57.9386C95.9485 53.9047 93.4387 50.2563 90.2921 47.2063ZM85.6468 89.2964C81.3377 93.6258 75.6662 96.3219 69.5986 96.9252C63.5309 97.5286 57.4425 96.0019 52.3707 92.6053C47.2988 89.2087 43.5573 84.1524 41.7836 78.2977C40.0099 72.443 40.3137 66.1523 42.6433 60.4972C44.9728 54.8421 49.1841 50.1726 54.5594 47.2842C59.9348 44.3958 66.1418 43.4672 72.1229 44.6566C78.1039 45.8461 83.4891 49.08 87.3608 53.8073C91.2325 58.5347 93.3512 64.463 93.356 70.5823C93.3677 74.0583 92.6924 77.5021 91.3692 80.7143C90.0459 83.9266 88.1009 86.8436 85.6468 89.2964Z" fill="#5F5B5B"/>
</svg>
