<svg width="90" height="90" viewBox="0 0 90 90" fill="none" xmlns="http://www.w3.org/2000/svg">
<path fill-rule="evenodd" clip-rule="evenodd" d="M8.4375 45C8.4375 24.8083 24.8083 8.4375 45 8.4375C54.6372 8.4375 63.3763 12.1967 69.8979 18.2746C70.4561 18.7949 70.779 19.5197 70.7924 20.2826C70.8059 21.0456 70.5087 21.7813 69.9691 22.3209L60.4229 31.8671C59.3696 32.9203 57.6778 32.9697 56.5649 31.9797C53.478 29.2337 49.4389 27.5625 45 27.5625C35.3702 27.5625 27.5625 35.3702 27.5625 45C27.5625 54.6298 35.3702 62.4375 45 62.4375C51.0894 62.4375 56.4455 59.3073 59.5605 54.5625H45C43.4467 54.5625 42.1875 53.3033 42.1875 51.75V38.25C42.1875 36.6967 43.4467 35.4375 45 35.4375H78.0936C79.4361 35.4375 80.5915 36.3864 80.8524 37.7034C81.3119 40.0228 81.5625 42.5549 81.5625 45C81.5625 65.1917 65.1917 81.5625 45 81.5625C24.8083 81.5625 8.4375 65.1917 8.4375 45ZM45 14.0625C27.9149 14.0625 14.0625 27.9149 14.0625 45C14.0625 62.0851 27.9149 75.9375 45 75.9375C62.0851 75.9375 75.9375 62.0851 75.9375 45C75.9375 43.6968 75.8531 42.3602 75.6948 41.0625H47.8125V48.9375H64.0738C64.9871 48.9375 65.8435 49.3809 66.3706 50.1268C66.8977 50.8726 67.0299 51.8279 66.725 52.6888C63.5591 61.6296 55.048 68.0625 45 68.0625C32.2636 68.0625 21.9375 57.7364 21.9375 45C21.9375 32.2636 32.2636 21.9375 45 21.9375C49.9247 21.9375 54.4771 23.4945 58.2136 26.1214L63.8359 20.4992C58.6146 16.4686 52.0941 14.0625 45 14.0625Z" fill="#5F5B5B"/>
</svg>
