<svg width="100" height="100" viewBox="0 0 100 100" fill="none" xmlns="http://www.w3.org/2000/svg">
<path fill-rule="evenodd" clip-rule="evenodd" d="M59.9377 64.3575C48.8949 73.2019 32.7306 72.5058 22.494 62.2692C11.5105 51.2857 11.5105 33.478 22.494 22.4945C33.4775 11.511 51.2852 11.511 62.2687 22.4945C72.5053 32.731 73.2014 48.8953 64.3571 59.9381L85.8389 81.4199C87.0593 82.6403 87.0593 84.6189 85.8389 85.8393C84.6185 87.0597 82.6398 87.0597 81.4195 85.8393L59.9377 64.3575ZM26.9134 57.8498C18.3707 49.3071 18.3707 35.4566 26.9134 26.9139C35.4561 18.3712 49.3066 18.3712 57.8493 26.9139C66.3858 35.4503 66.392 49.2867 57.8681 57.831C57.8618 57.8372 57.8555 57.8434 57.8492 57.8497C57.843 57.856 57.8367 57.8623 57.8305 57.8686C49.2863 66.3925 35.4498 66.3862 26.9134 57.8498Z" fill="white"/>
</svg>
