<svg width="130" height="130" viewBox="0 0 130 130" fill="none" xmlns="http://www.w3.org/2000/svg">
<path fill-rule="evenodd" clip-rule="evenodd" d="M17.6042 54.3281C17.6042 39.7004 30.4371 28.4375 45.5001 28.4375C53.2647 28.4375 60.0971 32.0783 65.0001 36.7891C69.903 32.0783 76.7354 28.4375 84.5001 28.4375C99.563 28.4375 112.396 39.7004 112.396 54.3281C112.396 64.3482 108.123 73.1599 102.203 80.6083C96.2928 88.0439 88.5623 94.3545 81.1605 99.4824C78.3334 101.441 75.4733 103.248 72.8557 104.581C70.3978 105.832 67.5716 106.979 65.0001 106.979C62.4285 106.979 59.6023 105.832 57.1444 104.581C54.5268 103.248 51.6668 101.441 48.8396 99.4824C41.4378 94.3545 33.7073 88.0439 27.7974 80.6083C21.8774 73.1599 17.6042 64.3482 17.6042 54.3281ZM45.5001 36.5625C34.2375 36.5625 25.7292 44.8451 25.7292 54.3281C25.7292 61.9303 28.9564 69.0083 34.1581 75.5529C39.3699 82.1102 46.3826 87.8958 53.4666 92.8035C56.1472 94.6606 58.672 96.2407 60.8317 97.3406C63.1511 98.5218 64.4945 98.8542 65.0001 98.8542C65.5056 98.8542 66.8491 98.5218 69.1685 97.3406C71.3281 96.2407 73.853 94.6606 76.5336 92.8035C83.6176 87.8958 90.6302 82.1102 95.8421 75.5528C101.044 69.0083 104.271 61.9303 104.271 54.3281C104.271 44.8451 95.7627 36.5625 84.5001 36.5625C78.0318 36.5625 71.9919 40.4269 68.2206 45.3317C67.4517 46.3318 66.2617 46.9179 65.0001 46.9179C63.7385 46.9179 62.5485 46.3318 61.7795 45.3317C58.0083 40.4269 51.9684 36.5625 45.5001 36.5625Z" fill="black"/>
</svg>
