<svg width="937" height="146" viewBox="0 0 937 146" fill="none" xmlns="http://www.w3.org/2000/svg">
<g clip-path="url(#clip0_48_274)">
<path fill-rule="evenodd" clip-rule="evenodd" d="M95.5204 46.0626C97.3265 47.8688 97.3265 50.7972 95.5204 52.6034L74.1241 73.9997L95.5204 95.396C97.3265 97.2021 97.3265 100.131 95.5204 101.937C93.7142 103.743 90.7858 103.743 88.9796 101.937L64.313 77.27C62.5068 75.4639 62.5068 72.5355 64.313 70.7293L88.9796 46.0626C90.7858 44.2565 93.7142 44.2565 95.5204 46.0626Z" fill="#8B8B8B"/>
<path fill-rule="evenodd" clip-rule="evenodd" d="M847.691 46.0636C849.557 44.2574 852.581 44.2574 854.446 46.0636L879.922 70.7303C881.787 72.5365 881.787 75.4648 879.922 77.271L854.446 101.938C852.581 103.744 849.557 103.744 847.691 101.938C845.826 100.132 845.826 97.2031 847.691 95.3969L869.789 74.0007L847.691 52.6044C845.826 50.7982 845.826 47.8698 847.691 46.0636Z" fill="#8B8B8B"/>
<circle cx="189" cy="74" r="15" fill="#8B8B8B"/>
<circle cx="284" cy="74" r="15" fill="#8B8B8B"/>
<ellipse cx="378.5" cy="74" rx="14.5" ry="15" fill="#8B8B8B"/>
<ellipse cx="473.5" cy="74" rx="14.5" ry="15" fill="#EFABAB"/>
<circle cx="568" cy="74" r="15" fill="#8B8B8B"/>
<circle cx="663" cy="74" r="15" fill="#8B8B8B"/>
<circle cx="758" cy="74" r="15" fill="#8B8B8B"/>
</g>
<defs>
<clipPath id="clip0_48_274">
<rect width="937" height="146" fill="white"/>
</clipPath>
</defs>
</svg>
