<svg width="104" height="104" viewBox="0 0 104 104" fill="none" xmlns="http://www.w3.org/2000/svg">
<path d="M91.0001 69.3337H30.3334C29.1841 69.3337 28.0819 68.8771 27.2693 68.0645C26.4566 67.2518 26.0001 66.1496 26.0001 65.0003C26.0001 63.8511 26.4566 62.7489 27.2693 61.9362C28.0819 61.1235 29.1841 60.667 30.3334 60.667H75.5734C78.4709 60.6672 81.2854 59.6993 83.57 57.9172C85.8546 56.135 87.4784 53.6407 88.1834 50.8303L95.3334 22.707C95.4957 22.0674 95.5098 21.3992 95.3746 20.7534C95.2395 20.1076 94.9586 19.5011 94.5534 18.9803C94.132 18.4462 93.5907 18.0187 92.9734 17.7327C92.3561 17.4466 91.6801 17.3099 91.0001 17.3337H29.2934C28.3994 14.8049 26.7451 12.6147 24.5574 11.0631C22.3696 9.51147 19.7555 8.67453 17.0734 8.66699H13.0001C11.8508 8.66699 10.7486 9.12354 9.93595 9.9362C9.12329 10.7489 8.66675 11.8511 8.66675 13.0003C8.66675 14.1496 9.12329 15.2518 9.93595 16.0645C10.7486 16.8771 11.8508 17.3337 13.0001 17.3337H17.0734C18.0633 17.3048 19.0332 17.6159 19.8216 18.2151C20.6101 18.8143 21.1695 19.6655 21.4067 20.627L21.6667 22.707L29.1634 52.0003C25.7156 52.1555 22.4706 53.6739 20.1424 56.2216C17.8141 58.7693 16.5933 62.1375 16.7484 65.5853C16.9036 69.0331 18.422 72.2781 20.9697 74.6064C23.5174 76.9346 26.8856 78.1555 30.3334 78.0003H31.1134C30.4007 79.9639 30.1717 82.0703 30.4458 84.1411C30.7198 86.212 31.4889 88.1863 32.6878 89.8969C33.8867 91.6075 35.4802 93.004 37.3333 93.9681C39.1864 94.9322 41.2445 95.4356 43.3334 95.4356C45.4223 95.4356 47.4805 94.9322 49.3336 93.9681C51.1866 93.004 52.7801 91.6075 53.979 89.8969C55.1779 88.1863 55.947 86.212 56.2211 84.1411C56.4951 82.0703 56.2661 79.9639 55.5534 78.0003H65.7801C65.0674 79.9639 64.8384 82.0703 65.1124 84.1411C65.3865 86.212 66.1556 88.1863 67.3545 89.8969C68.5534 91.6075 70.1469 93.004 71.9999 93.9681C73.853 94.9322 75.9112 95.4356 78.0001 95.4356C80.089 95.4356 82.1471 94.9322 84.0002 93.9681C85.8533 93.004 87.4468 91.6075 88.6457 89.8969C89.8446 88.1863 90.6137 86.212 90.8877 84.1411C91.1618 82.0703 90.9328 79.9639 90.2201 78.0003H91.0001C92.1494 78.0003 93.2516 77.5438 94.0642 76.7311C94.8769 75.9185 95.3334 74.8163 95.3334 73.667C95.3334 72.5177 94.8769 71.4155 94.0642 70.6029C93.2516 69.7902 92.1494 69.3337 91.0001 69.3337ZM85.4534 26.0003L79.7767 48.707C79.5395 49.6685 78.9801 50.5196 78.1916 51.1189C77.4032 51.7181 76.4333 52.0292 75.4434 52.0003H38.0467L31.5467 26.0003H85.4534ZM43.3334 86.667C42.4764 86.667 41.6386 86.4129 40.9259 85.9367C40.2133 85.4605 39.6579 84.7838 39.3299 83.992C39.002 83.2001 38.9161 82.3288 39.0833 81.4883C39.2505 80.6477 39.6633 79.8756 40.2693 79.2695C40.8753 78.6635 41.6474 78.2508 42.488 78.0836C43.3286 77.9164 44.1999 78.0022 44.9917 78.3302C45.7835 78.6582 46.4603 79.2136 46.9365 79.9262C47.4126 80.6388 47.6667 81.4766 47.6667 82.3337C47.6667 83.4829 47.2102 84.5851 46.3975 85.3978C45.5849 86.2104 44.4827 86.667 43.3334 86.667ZM78.0001 86.667C77.143 86.667 76.3052 86.4129 75.5926 85.9367C74.88 85.4605 74.3246 84.7838 73.9966 83.992C73.6686 83.2001 73.5828 82.3288 73.75 81.4883C73.9172 80.6477 74.3299 79.8756 74.936 79.2695C75.542 78.6635 76.3141 78.2508 77.1547 78.0836C77.9953 77.9164 78.8666 78.0022 79.6584 78.3302C80.4502 78.6582 81.127 79.2136 81.6031 79.9262C82.0793 80.6388 82.3334 81.4766 82.3334 82.3337C82.3334 83.4829 81.8769 84.5851 81.0642 85.3978C80.2516 86.2104 79.1494 86.667 78.0001 86.667Z" fill="black"/>
</svg>
